<svg xmlns="http://www.w3.org/2000/svg" viewBox="0 0 325.47 325.47"><defs><style>.cls-1{fill:#fff;}.cls-2{fill:#e0ac01;}</style></defs><g id="Layer_2" data-name="Layer 2"><g id="dark_BG"><g id="all_lines"><g id="logo_circle_darkBG"><circle class="cls-1" cx="162.73" cy="162.73" r="162.73"/><path d="M63.21,157h3.85c2.67,0,4.43.79,4.43,2.85s-1.76,3-4.43,3h-2.9v4.95h-.95Zm3.6,5.2c2.38,0,3.71-.76,3.71-2.35s-1.33-2.21-3.71-2.21H64.16v4.56Zm.94.19,4,5.39H70.65l-3.81-5.17Z"/><path d="M76.29,157h8v.65h-7v4.08h5.92v.65H77.23v4.75h7.23v.65H76.29Z"/><path d="M88,162.37c0-3.42,2.34-5.56,5.78-5.56a5.19,5.19,0,0,1,3.5,1.28l-.56.5a4.26,4.26,0,0,0-2.94-1.1A4.49,4.49,0,0,0,89,162.36c0,3,1.84,4.93,4.73,4.93A4.75,4.75,0,0,0,97.13,166l.56.46a5.5,5.5,0,0,1-4,1.55A5.33,5.33,0,0,1,88,162.37Z"/><path d="M100.54,162.35c0-3.42,2.1-5.54,5-5.54s5,2.12,5,5.54-2.09,5.63-5,5.63S100.54,165.79,100.54,162.35Zm9.08,0c0-3-1.64-4.86-4-4.86s-4,1.87-4,4.86,1.64,4.94,4,4.94S109.62,165.36,109.62,162.35Z"/><path d="M114.72,157h3.84c2.68,0,4.43.79,4.43,2.85s-1.75,3-4.43,3h-2.89v4.95h-1Zm3.6,5.2c2.38,0,3.7-.76,3.7-2.35s-1.32-2.21-3.7-2.21h-2.65v4.56Zm.93.19,4,5.39h-1.09l-3.81-5.17Z"/><path d="M127.17,157h3.1c4.13,0,6.09,2.09,6.09,5.35s-2,5.43-6.07,5.43h-3.12Zm3,10.14c3.62,0,5.19-2,5.19-4.79s-1.57-4.71-5.19-4.71h-2.07v9.5Z"/><path d="M140.27,167.13h3.46v-9.48h-3.46V157h7.87v.65h-3.47v9.48h3.47v.65h-7.87Z"/><path d="M152.83,157h1l5.24,7.62,1.44,2.13h0c0-1-.12-2.08-.12-3.13V157h.89v10.78h-1l-5.24-7.62L153.65,158h-.05c0,1.05.13,2,.13,3.07v6.68h-.9Z"/><path d="M165,162.37c0-3.42,2.34-5.56,5.81-5.56a5.3,5.3,0,0,1,3.58,1.28l-.56.5a4.32,4.32,0,0,0-3-1.1,4.5,4.5,0,0,0-4.82,4.87c0,3,1.75,4.93,4.69,4.93a4.85,4.85,0,0,0,2.92-.81v-3.36h-3.1v-.64h4v4.28a5.94,5.94,0,0,1-3.9,1.22A5.28,5.28,0,0,1,165,162.37Z"/><path d="M191.14,166.35l.61-.52a6.34,6.34,0,0,0,4.16,1.46c2.16,0,3.52-.88,3.52-2.15s-1.19-1.78-2.61-2.26l-2-.74c-1.26-.41-2.93-1.08-2.93-2.68s1.75-2.65,4.11-2.65a6.3,6.3,0,0,1,3.95,1.28l-.54.51a5.37,5.37,0,0,0-3.43-1.11c-1.88,0-3.14.76-3.14,1.92s1.45,1.73,2.52,2.08l2,.73c1.61.54,3,1.21,3,2.85s-1.77,2.91-4.5,2.91A7.07,7.07,0,0,1,191.14,166.35Z"/><path d="M208.11,157.65h-4.68V157h10.31v.65h-4.68v10.13h-.95Z"/><path d="M217.14,163.75V157h1v6.66c0,2.77,1.58,3.63,3.38,3.63s3.42-.86,3.42-3.63V157h.89v6.75c0,3.26-2.05,4.23-4.31,4.23S217.14,167,217.14,163.75Z"/><path d="M230.18,157h3.1c4.13,0,6.09,2.09,6.09,5.35s-2,5.43-6.07,5.43h-3.12Zm3,10.14c3.62,0,5.19-2,5.19-4.79s-1.57-4.71-5.19-4.71h-2.07v9.5Z"/><path d="M243.28,167.13h3.46v-9.48h-3.46V157h7.87v.65h-3.46v9.48h3.46v.65h-7.87Z"/><path d="M255.06,162.35c0-3.42,2.1-5.54,5-5.54s5,2.12,5,5.54-2.09,5.63-5,5.63S255.06,165.79,255.06,162.35Zm9.07,0c0-3-1.63-4.86-4-4.86s-4,1.87-4,4.86,1.63,4.94,4,4.94S264.13,165.36,264.13,162.35Z"/><rect class="cls-2" x="251.61" y="183.43" width="2" height="30.62"/><rect x="236.71" y="183.43" width="2" height="33.14"/><rect x="221.81" y="183.43" width="2" height="26.34"/><rect x="184.14" y="183.43" width="2" height="25.79"/><rect class="cls-2" x="169.24" y="183.43" width="2" height="24.67"/><rect x="154.34" y="183.43" width="2" height="27.12"/><rect x="140.3" y="183.43" width="2" height="24.67"/><rect x="103.51" y="183.43" width="2" height="42.32"/><rect x="88.6" y="183.43" width="2" height="35.15"/><rect class="cls-2" x="73.7" y="183.43" width="2" height="36.82"/><path class="cls-2" d="M167.31,133v9.87h-4v-10L151.94,114.3h4.36l9.13,15,9.18-15h4Z"/><path class="cls-2" d="M199.23,135.7H184.06l-3.14,7.14h-4.19l12.92-28.54h4l13,28.54h-4.28Zm-1.43-3.26-6.15-14-6.16,14Z"/><path class="cls-2" d="M230,142.84l-6.16-8.77c-.57,0-1.18.08-1.79.08H215v8.69h-4.08V114.3H222c7.42,0,11.91,3.75,11.91,10a9,9,0,0,1-6.28,9l6.76,9.58Zm-.12-18.59c0-4.08-2.73-6.4-7.95-6.4H215v12.84h6.93C227.12,130.69,229.85,128.32,229.85,124.25Z"/><path class="cls-2" d="M240.53,114.3h12c9.17,0,15.41,5.79,15.41,14.27s-6.24,14.27-15.41,14.27h-12Zm11.78,25c7.05,0,11.58-4.32,11.58-10.72s-4.53-10.72-11.58-10.72H244.6v21.44Z"/><path d="M68.17,116.22H57.89v-1.79H80.52v1.79H70.25v25.42H68.17Z"/><path d="M108.9,114.43v27.21h-2.08V128.69H87.74v12.95H85.66V114.43h2.08V127h19.08V114.43Z"/><path d="M138.54,139.85v1.79h-19.7V114.43h19.09v1.79h-17V127h15.21v1.74H120.92v11.16Z"/></g></g></g></g></svg>